<svg width="300" height="200" viewBox="0 0 300 200" fill="none" xmlns="http://www.w3.org/2000/svg">
    <!-- Product Description Cards -->
    <rect width="300" height="200" fill="#f8f9fa"/>
    
    <!-- Main Card -->
    <rect x="30" y="20" width="240" height="160" rx="8" fill="white" stroke="#3498db" stroke-width="2"/>
    
    <!-- Text Lines -->
    <rect x="50" y="40" width="160" height="10" rx="5" fill="#3498db"/>
    <rect x="50" y="60" width="200" height="6" rx="3" fill="#e9ecef"/>
    <rect x="50" y="80" width="180" height="6" rx="3" fill="#e9ecef"/>
    <rect x="50" y="100" width="190" height="6" rx="3" fill="#e9ecef"/>
    
    <!-- Star Rating -->
    <g transform="translate(50, 130)" fill="#f1c40f">
        <path d="M0 0l6 12l12 2l-9 9l2 12l-11-6l-11 6l2-12l-9-9l12-2z"/>
        <path d="M30 0l6 12l12 2l-9 9l2 12l-11-6l-11 6l2-12l-9-9l12-2z"/>
        <path d="M60 0l6 12l12 2l-9 9l2 12l-11-6l-11 6l2-12l-9-9l12-2z"/>
        <path d="M90 0l6 12l12 2l-9 9l2 12l-11-6l-11 6l2-12l-9-9l12-2z"/>
        <path d="M120 0l6 12l12 2l-9 9l2 12l-11-6l-11 6l2-12l-9-9l12-2z"/>
    </g>
</svg> 